<?xml version="1.0" encoding="UTF-8"?>
<svg xmlns="http://www.w3.org/2000/svg" viewBox="0 0 1024 1024">
  <defs>
    <style>
      .gold { fill: #C4912C; }
      .gold-stroke { fill: none; stroke: #C4912C; stroke-width: 36; stroke-linejoin: round; }
      .blue { fill: #1F4E8C; }
      .serif { font-family: Georgia, 'Times New Roman', Times, serif; font-weight: 700; }
    </style>
  </defs>

  <!-- Hexagon border -->
  <polygon class="gold-stroke"
           points="512,96 848,288 848,736 512,928 176,736 176,288" />

  <!-- Graduation cap (stylized) -->
  <!-- Top diamond -->
  <polygon class="gold"
           points="512,302 688,386 512,470 336,386" />
  <!-- Cap body -->
  <path class="gold" d="M 396 440 L 628 440 Q 636 440 636 448 L 636 516 Q 636 522 630 525 L 512 580 Q 510 581 508 581 Q 506 581 504 580 L 386 525 Q 380 522 380 516 L 380 448 Q 380 440 388 440 Z" />
  <!-- Tassel -->
  <circle class="gold" cx="396" cy="462" r="10"/>
  <rect class="gold" x="392" y="462" width="12" height="94" rx="6" />
  <polygon class="gold" points="412,548 378,548 384,600 406,600" />

  <!-- Blue stars -->
  <!-- Left star -->
  <polygon class="blue" transform="translate(280,480) scale(1.0)"
           points="0,-45 12,-14 45,-14 18,6 28,38 0,20 -28,38 -18,6 -45,-14 -12,-14" />
  <!-- Right star -->
  <polygon class="blue" transform="translate(744,480) scale(1.0)"
           points="0,-45 12,-14 45,-14 18,6 28,38 0,20 -28,38 -18,6 -45,-14 -12,-14" />
  <!-- Bottom star -->
  <polygon class="blue" transform="translate(512,760) scale(1.2)"
           points="0,-45 12,-14 45,-14 18,6 28,38 0,20 -28,38 -18,6 -45,-14 -12,-14" />

  <!-- MCC text (uses bold serif; converts to paths if you prefer exact rendering) -->
  <text x="512" y="640" font-size="210" text-anchor="middle" class="gold serif">MCC</text>
</svg>
